<?xml version="1.0" encoding="UTF-8"?>
<!DOCTYPE svg PUBLIC "-//W3C//DTD SVG 1.1//EN" "http://www.w3.org/Graphics/SVG/1.1/DTD/svg11.dtd">
<!-- Creator: CorelDRAW 2019 (64 Bit) -->
<svg xmlns="http://www.w3.org/2000/svg" xml:space="preserve" width="34px" height="25px" version="1.1" style="shape-rendering:geometricPrecision; text-rendering:geometricPrecision; image-rendering:optimizeQuality; fill-rule:evenodd; clip-rule:evenodd"
viewBox="0 0 32.4 23.73"
 xmlns:xlink="http://www.w3.org/1999/xlink">
 <defs>
  <style type="text/css">
   <![CDATA[
    .fil0 {fill:black}
   ]]>
  </style>
 </defs>
 <g id="Camada_x0020_1">
  <metadata id="CorelCorpID_0Corel-Layer"/>
  <g id="_1102039168">
   <path class="fil0" d="M1.58 20.37l0 -13.45c0,-2.4 3.5,-1.81 6.52,-1.77 2.04,0.02 1.9,-0.02 2.85,-1.31 2.18,-2.94 0.75,-2.26 8.41,-2.26 0.64,0 1.44,1.38 2,2.15 0.89,1.2 0.79,1.44 2.74,1.42 1.38,-0.02 2.77,-0.01 4.16,-0.02 1.51,-0.01 2.56,0.36 2.56,1.79l0 13.45c0,0.98 -0.8,1.78 -1.78,1.78l-25.68 0c-0.98,0 -1.78,-0.8 -1.78,-1.78zm7.51 -16.81c-1.96,0 -3.99,-0.05 -5.94,-0.01 -1.87,0.04 -3.15,1.6 -3.15,2.78l0 14.63c0,1.24 1.53,2.77 2.76,2.77l26.88 0c1.23,0 2.76,-1.53 2.76,-2.77l0 -14.63c0,-0.82 -0.57,-1.51 -1.02,-1.94 -0.58,-0.55 -1.04,-0.82 -2.13,-0.84 -1.95,-0.04 -3.98,0.01 -5.94,0.01l-2.36 -3.17c-0.27,-0.28 -0.01,-0.39 -0.6,-0.39l-8.3 0c-0.56,0 -0.5,0.27 -0.86,0.72l-2.1 2.84z"/>
   <path class="fil0" d="M10.27 12.66c0,-4.95 6.29,-7.97 10.09,-4.17 0.46,0.46 0.9,1.16 1.18,1.79 1.36,3.05 -0.04,6.41 -2.96,7.72 -4.28,1.91 -8.31,-1.64 -8.31,-5.34zm-1.58 -0.6l0 1.19c0,3.43 3.5,6.92 6.92,6.92 2.5,0 4.14,-0.36 5.94,-2.16 4.7,-4.71 1.18,-12.87 -4.76,-12.87l-1.18 0c-3.43,0 -6.92,3.49 -6.92,6.92z"/>
  </g>
 </g>
</svg>
