<?xml version="1.0" encoding="UTF-8"?>
<!DOCTYPE svg PUBLIC "-//W3C//DTD SVG 1.1//EN" "http://www.w3.org/Graphics/SVG/1.1/DTD/svg11.dtd">
<!-- Creator: CorelDRAW 2019 (64 Bit) -->
<svg xmlns="http://www.w3.org/2000/svg" xml:space="preserve" width="28px" height="25px" version="1.1" style="shape-rendering:geometricPrecision; text-rendering:geometricPrecision; image-rendering:optimizeQuality; fill-rule:evenodd; clip-rule:evenodd"
viewBox="0 0 26.4 23.73"
 xmlns:xlink="http://www.w3.org/1999/xlink">
 <defs>
  <style type="text/css">
   <![CDATA[
    .fil0 {fill:#020202}
   ]]>
  </style>
 </defs>
 <g id="Camada_x0020_1">
  <metadata id="CorelCorpID_0Corel-Layer"/>
  <path class="fil0" d="M13.13 5.94c1.65,-0.52 1.92,-5.82 7.7,-4.56 3.17,0.7 5.23,3.96 4.08,7.91 -0.87,3.02 -3.44,5.44 -5.23,7.18l-6.54 5.81 -3.16 -2.89c-2.88,-2.48 -7.52,-6.65 -8.52,-10.24 -1.82,-6.47 4.99,-9.8 8.93,-6.81 1.42,1.08 1.82,3.12 2.74,3.6zm-0.03 -1.92c-2.01,-3.62 -5.54,-4.96 -9,-3.34 -2.84,1.34 -5.01,4.47 -3.72,8.93 1.21,4.13 5.89,8.07 9.16,10.87 1.12,0.95 2.42,2.58 3.59,3.25 0.79,-0.29 6.08,-5.37 7.23,-6.36 1.68,-1.44 4.84,-4.67 5.69,-7.8 2.32,-8.61 -7.42,-11.95 -11.37,-7.58 -0.53,0.58 -0.96,1.51 -1.58,2.03z"/>
 </g>
</svg>
