<?xml version="1.0" encoding="UTF-8"?>
<!DOCTYPE svg PUBLIC "-//W3C//DTD SVG 1.1//EN" "http://www.w3.org/Graphics/SVG/1.1/DTD/svg11.dtd">
<!-- Creator: CorelDRAW 2019 (64 Bit) -->
<svg xmlns="http://www.w3.org/2000/svg" xml:space="preserve" width="24px" height="25px" version="1.1" style="shape-rendering:geometricPrecision; text-rendering:geometricPrecision; image-rendering:optimizeQuality; fill-rule:evenodd; clip-rule:evenodd"
viewBox="0 0 22.44 23.17"
 xmlns:xlink="http://www.w3.org/1999/xlink">
 <defs>
  <style type="text/css">
   <![CDATA[
    .fil0 {fill:#201E1E}
   ]]>
  </style>
 </defs>
 <g id="Camada_x0020_1">
  <metadata id="CorelCorpID_0Corel-Layer"/>
  <path class="fil0" d="M18.51 21.74c-1.2,-0.17 -3.5,-0.94 -4.5,-0.85 -1.85,0.17 -2.5,0.6 -4.63,0.2 -8.95,-1.66 -11.25,-13.47 -3.43,-18.41 4.49,-2.84 11.12,-1.61 14.12,3.82 2,3.61 1.3,8.78 -1.63,11.69 -1.69,1.68 -0.65,1.39 0.07,3.55zm1.62 1.38c0.3,-1.17 -0.86,-2.5 -1.25,-3.59 0.96,-1.49 3.23,-2.89 3.53,-7.55 0.4,-6.15 -4.16,-11.38 -10.18,-11.93 -3.59,-0.33 -6.53,1.08 -8.47,2.81 -4.45,3.99 -5.21,10.77 -0.87,15.85 4.59,5.36 10.43,3.08 12.61,3.59 1.26,0.29 3.42,1.08 4.63,0.82z"/>
 </g>
</svg>
