<?xml version="1.0" encoding="UTF-8"?>
<!DOCTYPE svg PUBLIC "-//W3C//DTD SVG 1.1//EN" "http://www.w3.org/Graphics/SVG/1.1/DTD/svg11.dtd">
<!-- Creator: CorelDRAW 2019 (64 Bit) -->
<svg xmlns="http://www.w3.org/2000/svg" xml:space="preserve" width="133px" height="28px" version="1.1" style="shape-rendering:geometricPrecision; text-rendering:geometricPrecision; image-rendering:optimizeQuality; fill-rule:evenodd; clip-rule:evenodd"
viewBox="0 0 131.33 27.71"
 xmlns:xlink="http://www.w3.org/1999/xlink">
 <defs>
  <style type="text/css">
   <![CDATA[
    .fil1 {fill:#201E1E}
    .fil0 {fill:#0A0A08}
   ]]>
  </style>
 </defs>
 <g id="Camada_x0020_1">
  <metadata id="CorelCorpID_0Corel-Layer"/>
  <g id="_1094233824">
   <g>
    <g>
     <g>
      <path class="fil0" d="M12.37 2.38c3.3,0 3.69,0.02 5,0.08 1.2,0.05 1.86,0.25 2.29,0.42 0.58,0.23 0.99,0.5 1.43,0.93 0.43,0.43 0.7,0.84 0.92,1.42 0.17,0.44 0.37,1.09 0.43,2.3 0.06,1.3 0.07,1.69 0.07,4.99 0,3.31 -0.01,3.7 -0.07,5 -0.06,1.21 -0.26,1.86 -0.43,2.3 -0.22,0.58 -0.49,0.99 -0.92,1.42 -0.44,0.43 -0.85,0.7 -1.43,0.93 -0.43,0.17 -1.09,0.37 -2.29,0.42 -1.31,0.06 -1.7,0.08 -5,0.08 -3.3,0 -3.69,-0.02 -5,-0.08 -1.21,-0.05 -1.86,-0.25 -2.3,-0.42 -0.57,-0.23 -0.98,-0.5 -1.42,-0.93 -0.43,-0.43 -0.7,-0.84 -0.92,-1.42 -0.17,-0.44 -0.37,-1.09 -0.43,-2.3 -0.06,-1.3 -0.07,-1.69 -0.07,-5 0,-3.3 0.01,-3.69 0.07,-4.99 0.06,-1.21 0.26,-1.86 0.43,-2.3 0.22,-0.58 0.49,-0.99 0.92,-1.42 0.44,-0.43 0.85,-0.7 1.42,-0.93 0.44,-0.17 1.09,-0.37 2.3,-0.42 1.31,-0.06 1.7,-0.08 5,-0.08l0 0zm0 -2.22c-3.36,0 -3.78,0.01 -5.1,0.07 -1.32,0.06 -2.22,0.27 -3,0.58 -0.82,0.31 -1.51,0.73 -2.19,1.42 -0.69,0.69 -1.11,1.38 -1.43,2.19 -0.31,0.79 -0.51,1.69 -0.58,3 -0.05,1.32 -0.07,1.75 -0.07,5.1 0,3.36 0.02,3.79 0.07,5.1 0.07,1.32 0.27,2.22 0.58,3.01 0.32,0.81 0.74,1.5 1.43,2.19 0.68,0.69 1.37,1.11 2.19,1.42 0.78,0.31 1.68,0.52 3,0.58 1.32,0.06 1.74,0.07 5.1,0.07 3.36,0 3.78,-0.01 5.1,-0.07 1.32,-0.06 2.21,-0.27 3,-0.58 0.82,-0.31 1.5,-0.73 2.19,-1.42 0.69,-0.69 1.11,-1.38 1.43,-2.19 0.3,-0.79 0.51,-1.69 0.57,-3.01 0.06,-1.31 0.08,-1.74 0.08,-5.1 0,-3.35 -0.02,-3.78 -0.08,-5.1 -0.06,-1.31 -0.27,-2.21 -0.57,-3 -0.32,-0.81 -0.74,-1.5 -1.43,-2.19 -0.69,-0.69 -1.37,-1.11 -2.19,-1.42 -0.79,-0.31 -1.68,-0.52 -3,-0.58 -1.32,-0.06 -1.74,-0.07 -5.1,-0.07zm0 6.01c-3.51,0 -6.35,2.85 -6.35,6.35 0,3.51 2.84,6.36 6.35,6.36 3.51,0 6.35,-2.85 6.35,-6.36 0,-3.5 -2.84,-6.35 -6.35,-6.35zm0 10.48c-2.28,0 -4.12,-1.85 -4.12,-4.13 0,-2.27 1.84,-4.12 4.12,-4.12 2.28,0 4.12,1.85 4.12,4.12 0,2.28 -1.84,4.13 -4.12,4.13zm8.09 -10.73c0,0.82 -0.67,1.49 -1.49,1.49 -0.82,0 -1.48,-0.67 -1.48,-1.49 0,-0.82 0.66,-1.48 1.48,-1.48 0.82,0 1.49,0.66 1.49,1.48z"/>
     </g>
    </g>
   </g>
   <g id="_1094233760">
    <g>
     <path class="fil1" d="M38.7 0.1c-2,0.83 -4.2,3.2 -4.89,6.17 -0.88,3.75 2.77,5.34 3.07,4.82 0.36,-0.61 -0.65,-0.82 -0.86,-2.77 -0.27,-2.52 0.9,-5.33 2.38,-6.57 0.27,-0.23 0.26,0.09 0.26,0.68 0,1.06 -0.06,10.55 -0.06,12.53 0,2.67 -0.11,3.52 -0.31,4.35 -0.2,0.85 -0.52,1.42 -0.28,1.64 0.28,0.25 1.45,-0.34 2.12,-1.28 0.81,-1.13 1.1,-2.5 1.15,-3.97 0.06,-1.79 0.06,-4.62 0.06,-6.23 0,-1.48 0.03,-5.81 -0.02,-8.41 -0.02,-0.64 -1.79,-1.31 -2.62,-0.96z"/>
     <path class="fil1" d="M109.68 12.63c-0.07,1.39 -0.37,2.48 -0.76,3.25 -0.74,1.49 -2.27,1.95 -2.93,-0.19 -0.35,-1.16 -0.37,-3.11 -0.11,-4.73 0.26,-1.66 0.98,-2.91 2.19,-2.8 1.18,0.12 1.74,1.64 1.61,4.47l0 0zm-20.01 8.64c-0.01,2.32 -0.38,4.34 -1.16,4.93 -1.11,0.84 -2.59,0.21 -2.29,-1.48 0.28,-1.49 1.57,-3.02 3.46,-4.88 0,0 0,0.42 -0.01,1.43l0 0zm-0.3 -8.65c-0.07,1.27 -0.4,2.54 -0.76,3.26 -0.74,1.49 -2.28,1.95 -2.93,-0.19 -0.43,-1.46 -0.33,-3.35 -0.11,-4.54 0.28,-1.55 0.96,-2.99 2.19,-2.99 1.19,0 1.78,1.31 1.61,4.46l0 0zm-11.59 -0.02c-0.07,1.34 -0.33,2.46 -0.75,3.28 -0.77,1.48 -2.27,1.94 -2.93,-0.19 -0.48,-1.54 -0.32,-3.63 -0.12,-4.77 0.29,-1.68 1.03,-2.87 2.19,-2.76 1.18,0.12 1.76,1.64 1.61,4.44l0 0zm53.11 1.57c-0.29,0 -0.42,0.3 -0.53,0.8 -0.38,1.75 -0.78,2.14 -1.29,2.14 -0.58,0 -1.09,-0.86 -1.23,-2.6 -0.1,-1.36 -0.09,-3.87 0.05,-6.37 0.03,-0.51 -0.12,-1.02 -1.49,-1.52 -0.59,-0.21 -1.45,-0.53 -1.88,0.51 -1.21,2.92 -1.69,5.24 -1.8,6.18 0,0.05 -0.07,0.06 -0.08,-0.05 -0.07,-0.76 -0.22,-2.13 -0.24,-5.01 -0.01,-0.57 -0.13,-1.05 -0.75,-1.44 -0.4,-0.25 -1.62,-0.7 -2.07,-0.17 -0.38,0.44 -0.82,1.62 -1.28,3.02 -0.37,1.13 -0.63,1.9 -0.63,1.9 0,0 0.01,-3.06 0.01,-4.23 0,-0.43 -0.3,-0.58 -0.39,-0.61 -0.41,-0.11 -1.21,-0.31 -1.55,-0.31 -0.42,0 -0.53,0.23 -0.53,0.58 0,0.04 -0.06,4.03 -0.06,6.81 0,0.12 0,0.26 0,0.4 -0.24,1.28 -0.99,3.02 -1.81,3.02 -0.82,0 -1.21,-0.73 -1.21,-4.05 0,-1.94 0.06,-2.78 0.09,-4.19 0.01,-0.8 0.05,-1.42 0.04,-1.56 0,-0.43 -0.75,-0.65 -1.1,-0.73 -0.34,-0.08 -0.65,-0.12 -0.88,-0.1 -0.34,0.02 -0.58,0.24 -0.58,0.54 0,0.16 0,0.47 0,0.47 -0.43,-0.68 -1.12,-1.15 -1.58,-1.29 -1.25,-0.37 -2.54,-0.04 -3.52,1.33 -0.78,1.09 -1.25,2.32 -1.44,4.09 -0.13,1.3 -0.09,2.61 0.15,3.72 -0.29,1.25 -0.82,1.77 -1.41,1.77 -0.86,0 -1.48,-1.4 -1.41,-3.81 0.05,-1.59 0.37,-2.71 0.72,-4.32 0.14,-0.68 0.02,-1.04 -0.28,-1.39 -0.27,-0.32 -0.86,-0.48 -1.71,-0.28 -0.61,0.14 -1.47,0.3 -2.26,0.41 0,0 0.05,-0.19 0.09,-0.52 0.2,-1.76 -1.71,-1.62 -2.32,-1.06 -0.36,0.34 -0.61,0.73 -0.7,1.44 -0.15,1.13 0.77,1.67 0.77,1.67 -0.3,1.38 -1.05,3.18 -1.81,4.49 -0.41,0.7 -0.72,1.22 -1.13,1.77 0,-0.21 0,-0.41 0,-0.62 -0.01,-2.9 0.03,-5.19 0.05,-6.02 0.01,-0.8 0.05,-1.41 0.04,-1.55 0,-0.31 -0.18,-0.43 -0.57,-0.58 -0.34,-0.14 -0.74,-0.23 -1.15,-0.26 -0.53,-0.04 -0.84,0.24 -0.84,0.57 0.01,0.06 0.01,0.44 0.01,0.44 -0.44,-0.68 -1.13,-1.15 -1.59,-1.29 -1.25,-0.37 -2.54,-0.04 -3.52,1.33 -0.78,1.09 -1.29,2.62 -1.43,4.08 -0.14,1.36 -0.11,2.52 0.07,3.5 -0.2,0.98 -0.77,2 -1.41,2 -0.82,0 -1.29,-0.73 -1.29,-4.05 0,-1.94 0.06,-2.78 0.09,-4.19 0.01,-0.8 0.05,-1.42 0.04,-1.56 0,-0.43 -0.75,-0.65 -1.09,-0.73 -0.37,-0.09 -0.68,-0.12 -0.92,-0.1 -0.32,0.02 -0.54,0.31 -0.54,0.52l0 0.49c-0.44,-0.68 -1.13,-1.15 -1.59,-1.29 -1.24,-0.37 -2.54,-0.03 -3.52,1.33 -0.65,0.89 -1.17,1.88 -1.43,4.06 -0.08,0.63 -0.12,1.22 -0.11,1.77 -0.26,1.57 -1.39,3.38 -2.32,3.38 -0.54,0 -1.05,-1.05 -1.05,-3.29 0,-2.99 0.18,-7.24 0.21,-7.65 0,0 1.17,-0.02 1.4,-0.02 0.58,-0.01 1.11,0.01 1.89,-0.03 0.39,-0.02 0.76,-1.42 0.36,-1.6 -0.18,-0.07 -1.47,-0.14 -1.98,-0.15 -0.43,-0.01 -1.63,-0.1 -1.63,-0.1 0,0 0.11,-2.82 0.13,-3.12 0.03,-0.25 -0.3,-0.38 -0.48,-0.46 -0.45,-0.18 -0.85,-0.28 -1.32,-0.37 -0.66,-0.14 -0.96,-0.01 -1.02,0.55 -0.08,0.84 -0.13,3.3 -0.13,3.3 -0.48,0 -2.13,-0.09 -2.61,-0.09 -0.45,0 -0.93,1.92 -0.31,1.95 0.71,0.02 1.95,0.05 2.78,0.07 0,0 -0.04,4.32 -0.04,5.66 0,0.14 0,0.28 0,0.41 -0.45,2.36 -2.05,3.63 -2.05,3.63 0.34,-1.56 -0.35,-2.73 -1.62,-3.72 -0.46,-0.37 -1.38,-1.06 -2.4,-1.82 0,0 0.59,-0.59 1.12,-1.76 0.37,-0.84 0.39,-1.79 -0.53,-2 -1.51,-0.35 -2.76,0.76 -3.13,1.95 -0.29,0.92 -0.14,1.6 0.43,2.31 0.04,0.05 0.08,0.1 0.13,0.16 -0.34,0.66 -0.81,1.54 -1.21,2.23 -1.1,1.91 -1.94,3.42 -2.57,3.42 -0.5,0 -0.49,-1.53 -0.49,-2.97 0,-1.24 0.09,-3.1 0.16,-5.02 0.02,-0.64 -0.29,-1.01 -0.83,-1.33 -0.32,-0.2 -1.02,-0.6 -1.42,-0.6 -0.6,0 -2.33,0.09 -3.97,4.82 -0.2,0.6 -0.61,1.68 -0.61,1.68l0.04 -5.69c0,-0.13 -0.07,-0.26 -0.24,-0.35 -0.27,-0.15 -1.01,-0.46 -1.66,-0.46 -0.32,0 -0.47,0.15 -0.47,0.44l-0.06 8.91c0,0.67 0.02,1.46 0.09,1.81 0.06,0.34 0.17,0.62 0.3,0.79 0.14,0.17 0.29,0.3 0.55,0.35 0.23,0.05 1.53,0.21 1.6,-0.28 0.08,-0.6 0.08,-1.24 0.77,-3.64 1.06,-3.73 2.44,-5.55 3.09,-6.2 0.11,-0.11 0.24,-0.12 0.24,0.06 -0.03,0.82 -0.13,2.87 -0.19,4.61 -0.18,4.65 0.67,5.51 1.88,5.51 0.92,0 2.22,-0.92 3.62,-3.25 0.87,-1.45 1.72,-2.87 2.33,-3.89 0.42,0.39 0.9,0.81 1.37,1.26 1.11,1.05 1.47,2.05 1.23,2.99 -0.18,0.72 -0.88,1.47 -2.11,0.74 -0.36,-0.21 -0.51,-0.37 -0.88,-0.61 -0.19,-0.13 -0.49,-0.16 -0.66,-0.03 -0.47,0.35 -0.73,0.79 -0.88,1.34 -0.15,0.53 0.39,0.81 0.94,1.06 0.48,0.21 1.5,0.4 2.16,0.43 2.54,0.08 4.58,-1.23 6,-4.62 0.26,2.92 1.34,4.58 3.22,4.58 1.25,0 2.51,-1.62 3.06,-3.22 0.16,0.65 0.4,1.22 0.7,1.7 1.45,2.29 4.26,1.8 5.67,-0.15 0.43,-0.6 0.5,-0.82 0.5,-0.82 0.21,1.84 1.69,2.48 2.54,2.48 0.95,0 1.93,-0.45 2.61,-1.99 0.08,0.16 0.17,0.32 0.27,0.48 1.45,2.29 4.26,1.8 5.67,-0.15 0.06,-0.09 0.12,-0.18 0.17,-0.25l0.04 1.21c0,0 -0.8,0.74 -1.3,1.19 -2.17,2 -3.83,3.51 -3.95,5.27 -0.15,2.25 1.67,3.09 3.05,3.2 1.46,0.11 2.72,-0.7 3.49,-1.83 0.67,-1 1.12,-3.14 1.09,-5.26 -0.02,-0.85 -0.04,-1.93 -0.06,-3.08 0.77,-0.89 1.63,-2.01 2.42,-3.33 0.87,-1.43 1.79,-3.35 2.27,-4.85 0,0 0.8,0.01 1.66,-0.05 0.28,-0.01 0.36,0.04 0.3,0.24 -0.06,0.25 -1.08,4.2 -0.15,6.83 0.64,1.8 2.09,2.38 2.94,2.38 1,0 1.96,-0.76 2.47,-1.88 0.06,0.12 0.13,0.24 0.2,0.36 1.45,2.29 4.24,1.79 5.67,-0.15 0.32,-0.44 0.5,-0.82 0.5,-0.82 0.3,1.9 1.78,2.49 2.63,2.49 0.89,0 1.72,-0.36 2.4,-1.97 0.03,0.71 0.08,1.29 0.15,1.47 0.04,0.11 0.29,0.25 0.47,0.32 0.81,0.3 1.64,0.16 1.94,0.1 0.21,-0.04 0.38,-0.21 0.4,-0.65 0.06,-1.15 0.02,-3.08 0.37,-4.52 0.59,-2.4 1.13,-3.34 1.39,-3.8 0.15,-0.26 0.31,-0.3 0.31,-0.03 0.02,0.56 0.04,2.19 0.27,4.37 0.17,1.61 0.39,2.57 0.56,2.87 0.49,0.86 1.09,0.9 1.58,0.9 0.31,0 0.96,-0.09 0.91,-0.64 -0.03,-0.26 0.02,-1.91 0.59,-4.29 0.38,-1.55 1.01,-2.95 1.23,-3.46 0.09,-0.19 0.13,-0.04 0.13,-0.01 -0.05,1.07 -0.16,4.56 0.27,6.47 0.59,2.58 2.3,2.87 2.89,2.87 1.27,0 2.31,-0.96 2.66,-3.5 0.08,-0.61 -0.04,-1.08 -0.42,-1.08l0 0z"/>
    </g>
   </g>
  </g>
 </g>
</svg>
