<?xml version="1.0" encoding="UTF-8"?>
<!DOCTYPE svg PUBLIC "-//W3C//DTD SVG 1.1//EN" "http://www.w3.org/Graphics/SVG/1.1/DTD/svg11.dtd">
<!-- Creator: CorelDRAW 2019 (64 Bit) -->
<svg xmlns="http://www.w3.org/2000/svg" xml:space="preserve" width="25px" height="25px" version="1.1" style="shape-rendering:geometricPrecision; text-rendering:geometricPrecision; image-rendering:optimizeQuality; fill-rule:evenodd; clip-rule:evenodd"
viewBox="0 0 23.42 23.39"
 xmlns:xlink="http://www.w3.org/1999/xlink">
 <defs>
  <style type="text/css">
   <![CDATA[
    .fil0 {fill:#020202}
   ]]>
  </style>
 </defs>
 <g id="Camada_x0020_1">
  <metadata id="CorelCorpID_0Corel-Layer"/>
  <path class="fil0" d="M15.02 21.05l-4.17 -7.51 10.36 -10.45c-0.29,1.84 -5.68,17.38 -6.19,17.96zm-4.8 -8.55c-1.91,-0.32 -5.91,-3.31 -7.95,-4.02 0.82,-0.8 7.88,-2.96 9.02,-3.36 1.65,-0.57 7.94,-2.97 9.15,-3.05 -0.15,0.1 -10,10.11 -10.22,10.43zm-10.22 -4.49c0.16,0.97 3.07,2.24 4.45,2.96 1.01,0.53 4.42,2.28 5,2.78 1.44,1.24 4.3,9.02 5.79,9.64 1.02,-0.56 3.79,-9.87 4.37,-11.49 0.66,-1.85 4.02,-10.59 3.8,-11.88 -1.39,-0.35 -15.18,4.93 -17.7,5.74 -1.47,0.48 -5.02,1.41 -5.71,2.25z"/>
 </g>
</svg>
